<svg version="1.2" baseProfile="tiny-ps" xmlns="http://www.w3.org/2000/svg" viewBox="0 0 3724 2100" width="3724" height="2100">
	<title>COLORFUL_ABSTRACT_CURVE_GEOMETRIC_BACKGROUND-ai</title>
	<style>
		tspan { white-space:pre }
		.shp0 { opacity: 0.502;fill: #2ec4b6 } 
		.shp1 { fill: #2ec4b6 } 
		.shp2 { fill: none;stroke: #fdfffc;stroke-width: 3 } 
		.shp3 { fill: #fdfffc } 
		.shp4 { fill: none;stroke: #fdfffc;stroke-linecap:round;stroke-linejoin:round;stroke-width: 3 } 
	</style>
	<g id="design">
		<g id="green shape &amp; ornamen">
			<g id="shape 2 ">
				<path id="&lt;Path&gt;" class="shp0" d="M3724 0L3724 1723.63C3588.04 1687.48 3471.92 1569.37 3471.06 1429.26C3470.25 1298.46 3558.88 1187.07 3617.67 1070.23C3676.47 953.39 3695.97 788.05 3589.87 711.55C3498.81 645.89 3373.58 685.86 3261.32 686.15C3064.22 686.67 2876.59 538.02 2832 346.03C2808.97 246.89 2832.23 115.26 2887.48 0L3724 0Z" />
				<path id="&lt;Path&gt;" class="shp1" d="M3724 0L3724 1344.43C3614.06 1336.02 3526.4 1218.4 3508.98 1103.66C3489.51 975.44 3525.91 845.51 3525.19 715.82C3524.48 586.13 3467.52 438.09 3342.61 403.18C3253.85 378.37 3161.14 418.74 3069.15 424.52C2810.57 440.79 2672.69 211 2694.61 0L3724 0Z" />
			</g>
			<g id="ornament 2 ">
				<path id="&lt;Path&gt;" class="shp2" d="M3669.86 1045.52C3669.86 1074.34 3646.49 1097.71 3617.67 1097.71C3588.85 1097.71 3565.48 1074.34 3565.48 1045.52C3565.48 1016.69 3588.85 993.33 3617.67 993.33C3646.49 993.33 3669.86 1016.69 3669.86 1045.52Z" />
				<path id="&lt;Path&gt;" class="shp3" d="M3636.2 445.79C3636.2 451.51 3631.56 456.16 3625.84 456.16C3620.11 456.16 3615.47 451.51 3615.47 445.79C3615.47 440.06 3620.11 435.42 3625.84 435.42C3631.56 435.42 3636.2 440.06 3636.2 445.79Z" />
				<g id="&lt;Group&gt;">
					<path id="&lt;Path&gt;" class="shp3" d="M2843.67 117.43C2843.67 123.09 2839.08 127.67 2833.42 127.67C2827.76 127.67 2823.17 123.09 2823.17 117.43C2823.17 111.77 2827.76 107.18 2833.42 107.18C2839.08 107.18 2843.67 111.77 2843.67 117.43Z" />
					<path id="&lt;Path&gt;" class="shp3" d="M2942.72 117.43C2942.72 123.09 2938.13 127.67 2932.47 127.67C2926.81 127.67 2922.22 123.09 2922.22 117.43C2922.22 111.77 2926.81 107.18 2932.47 107.18C2938.13 107.18 2942.72 111.77 2942.72 117.43Z" />
					<path id="&lt;Path&gt;" class="shp3" d="M3041.77 117.43C3041.77 123.09 3037.18 127.67 3031.52 127.67C3025.86 127.67 3021.28 123.09 3021.28 117.43C3021.28 111.77 3025.86 107.18 3031.52 107.18C3037.18 107.18 3041.77 111.77 3041.77 117.43Z" />
					<path id="&lt;Path&gt;" class="shp3" d="M3140.82 117.43C3140.82 123.09 3136.23 127.67 3130.58 127.67C3124.92 127.67 3120.33 123.09 3120.33 117.43C3120.33 111.77 3124.92 107.18 3130.58 107.18C3136.23 107.18 3140.82 111.77 3140.82 117.43Z" />
					<path id="&lt;Path&gt;" class="shp3" d="M3239.87 117.43C3239.87 123.09 3235.29 127.67 3229.63 127.67C3223.97 127.67 3219.38 123.09 3219.38 117.43C3219.38 111.77 3223.97 107.18 3229.63 107.18C3235.29 107.18 3239.87 111.77 3239.87 117.43Z" />
					<path id="&lt;Path&gt;" class="shp3" d="M3338.93 117.43C3338.93 123.09 3334.34 127.67 3328.68 127.67C3323.02 127.67 3318.43 123.09 3318.43 117.43C3318.43 111.77 3323.02 107.18 3328.68 107.18C3334.34 107.18 3338.93 111.77 3338.93 117.43Z" />
					<path id="&lt;Path&gt;" class="shp3" d="M3437.98 117.43C3437.98 123.09 3433.39 127.67 3427.73 127.67C3422.07 127.67 3417.48 123.09 3417.48 117.43C3417.48 111.77 3422.07 107.18 3427.73 107.18C3433.39 107.18 3437.98 111.77 3437.98 117.43Z" />
					<path id="&lt;Path&gt;" class="shp3" d="M3537.03 117.43C3537.03 123.09 3532.44 127.67 3526.78 127.67C3521.12 127.67 3516.54 123.09 3516.54 117.43C3516.54 111.77 3521.12 107.18 3526.78 107.18C3532.44 107.18 3537.03 111.77 3537.03 117.43Z" />
					<path id="&lt;Path&gt;" class="shp3" d="M3636.08 117.43C3636.08 123.09 3631.49 127.67 3625.84 127.67C3620.18 127.67 3615.59 123.09 3615.59 117.43C3615.59 111.77 3620.18 107.18 3625.84 107.18C3631.49 107.18 3636.08 111.77 3636.08 117.43Z" />
				</g>
				<g id="&lt;Group&gt;">
					<path id="&lt;Path&gt;" class="shp4" d="M2966.9 262.55L3186.86 482.52" />
					<path id="&lt;Path&gt;" class="shp4" d="M3039.7 296.37L3259.67 516.34" />
				</g>
			</g>
		</g>
	</g>
</svg>